<svg xmlns="http://www.w3.org/2000/svg" style="display: none;">

  <symbol id="download-document" viewBox="0 0 192 256">
    <path d="M187.3,52.7l-48-48c-3-3-7.1-4.7-11.3-4.7H16C7.2,0,0,7.2,0,16v224c0,8.8,7.2,16,16,16h160c8.8,0,16-7.2,16-16V64
      C192,59.8,190.3,55.7,187.3,52.7z M128,16l48,48h-48V16z M176,240H16V16h104v48c0,4.4,3.6,8,8,8h48V240z M58.3,157.7l32,32
      c3.1,3.1,8.2,3.1,11.3,0l32-32c3.1-3.1,3.1-8.2,0-11.3c-3.1-3.1-8.2-3.1-11.3,0L104,164.7V120c0-4.4-3.6-8-8-8c-4.4,0-8,3.6-8,8
      v44.7l-18.3-18.3c-1.6-1.6-3.6-2.3-5.7-2.3c-2,0-4.1,0.8-5.7,2.3C55.2,149.5,55.2,154.5,58.3,157.7z"/>
  </symbol>

  <symbol id="applicants" viewBox="0 0 274.4 274.4">
    <path d="M240.1,17.1v25.7H34.3V17.1H240.1 M248.6,51.4v34.3H25.7V51.4H248.6 M257.2,94.3
      v162.9h-68.6v-25.7h17.1v-8.6h-42.9v8.6h17.1v25.7H94.3v-25.7h17.1v-8.6H68.6v8.6h17.1v25.7H17.1V94.3H257.2 M64.3,147.2
      c8.9,0,16-7.2,16-16.1c0-8.8-7.2-16-16-16c-8.8,0-16,7.2-16,16C48.3,140,55.5,147.2,64.3,147.2 M128.6,137.2h102.9v-8.6H128.6V137.2
       M128.6,162.9h102.9v-8.6H128.6V162.9 M42.9,197.2h42.9v-21c0-11.9-8.7-21.6-21.4-21.6c-12.7,0-21.4,9.7-21.4,21.6V197.2
       M128.6,188.6h102.9v-8.6H128.6V188.6 M240.1,0H34.3c-9.5,0-17.1,7.7-17.1,17.1v19.4c-5.1,3-8.6,8.5-8.6,14.9v28
      C3.4,82.4,0,88,0,94.3v162.9c0,9.5,7.7,17.1,17.1,17.1h240.1c9.5,0,17.1-7.7,17.1-17.1V94.3c0-6.3-3.4-11.9-8.6-14.9v-28
      c0-6.3-3.4-11.9-8.6-14.9V17.1C257.2,7.7,249.5,0,240.1,0L240.1,0z"/>
  </symbol>

  <symbol id="settings" viewBox="0 0 256 256">
    <path d="M128,88c22.1,0,40,17.9,40,40s-17.9,40-40,40s-40-17.9-40-40S105.9,88,128,88 M128,80c-26.5,0-48,21.5-48,48s21.5,48,48,48
      c26.5,0,48-21.5,48-48S154.5,80,128,80L128,80z M128,16c4.1,0,8.2,0.2,12.2,0.7l8.5,34.1c6.9,1.8,13.3,4.6,19.3,8l30.1-18.1
      c6.3,5.1,12.1,10.9,17.2,17.2L197.3,88c3.5,6,6.2,12.5,8,19.3l34.1,8.5c0.4,4,0.7,8.1,0.7,12.2s-0.2,8.2-0.7,12.2l-34.1,8.5
      c-1.8,6.9-4.6,13.3-8,19.3l18.1,30.1c-5.1,6.3-10.9,12.1-17.2,17.2L168,197.3c-6,3.5-12.5,6.2-19.3,8l-8.5,34.1
      c-4,0.4-8.1,0.7-12.2,0.7s-8.2-0.2-12.2-0.7l-8.5-34.1c-6.9-1.8-13.3-4.6-19.3-8l-30.1,18.1c-6.3-5.1-12.1-10.9-17.2-17.2L58.7,168
      c-3.5-6-6.2-12.5-8-19.3l-34.1-8.5c-0.4-4-0.7-8.1-0.7-12.2s0.2-8.2,0.7-12.2l34.1-8.5c1.8-6.9,4.6-13.3,8-19.3L40.7,57.9
      c5.1-6.3,10.9-12.1,17.2-17.2L88,58.7c6-3.5,12.5-6.2,19.3-8l8.5-34.1C119.8,16.2,123.9,16,128,16 M128,0c-4.6,0-9.3,0.3-13.9,0.8
      c-6.7,0.7-12.2,5.5-13.8,12l-6.4,25.5c-1.8,0.7-3.6,1.4-5.3,2.2L66.1,27c-2.5-1.5-5.4-2.3-8.2-2.3c-3.6,0-7.1,1.2-10,3.5
      C40.6,34,34,40.6,28.2,47.9C24,53.1,23.5,60.4,27,66.1l13.5,22.5c-0.8,1.8-1.5,3.5-2.2,5.3l-25.5,6.4c-6.5,1.6-11.3,7.1-12,13.8
      C0.3,118.7,0,123.4,0,128s0.3,9.3,0.8,13.9c0.7,6.7,5.5,12.2,12,13.8l25.5,6.4c0.7,1.8,1.4,3.6,2.2,5.3L27,189.9
      c-3.4,5.7-2.9,13,1.2,18.3c5.8,7.2,12.4,13.8,19.7,19.7c2.9,2.3,6.5,3.5,10,3.5c2.8,0,5.7-0.8,8.2-2.3l22.5-13.5
      c1.8,0.8,3.5,1.5,5.3,2.2l6.4,25.5c1.6,6.5,7.1,11.3,13.8,12c4.6,0.5,9.3,0.8,13.9,0.8c4.6,0,9.3-0.3,13.9-0.8
      c6.7-0.7,12.2-5.5,13.8-12l6.4-25.5c1.8-0.7,3.6-1.4,5.3-2.2l22.5,13.5c2.5,1.5,5.4,2.3,8.2,2.3c3.6,0,7.1-1.2,10-3.5
      c7.2-5.8,13.8-12.4,19.7-19.6c4.2-5.2,4.7-12.5,1.2-18.3l-13.5-22.5c0.8-1.8,1.5-3.5,2.2-5.3l25.5-6.4c6.5-1.6,11.3-7.1,12-13.8
      c0.5-4.6,0.8-9.3,0.8-13.9c0-4.6-0.3-9.3-0.8-13.9c-0.7-6.7-5.5-12.2-12-13.8l-25.5-6.4c-0.7-1.8-1.4-3.6-2.2-5.3L229,66.1
      c3.4-5.7,2.9-13-1.2-18.3c-5.8-7.2-12.4-13.8-19.6-19.7c-2.9-2.3-6.5-3.5-10-3.5c-2.8,0-5.7,0.8-8.2,2.3l-22.5,13.5
      c-1.8-0.8-3.5-1.5-5.3-2.2l-6.4-25.5c-1.6-6.5-7.1-11.3-13.8-12C137.3,0.3,132.6,0,128,0L128,0z"/>
  </symbol>

  <symbol id="spots" viewBox="0 0 256 256">
    <path d="M104,56c8.8,0,16-7.2,16-16c0-8.8-7.2-16-16-16s-16,7.2-16,16C88,48.8,95.2,56,104,56z M104,32c4.4,0,8,3.6,8,8
      c0,4.4-3.6,8-8,8c-4.4,0-8-3.6-8-8C96,35.6,99.6,32,104,32z M200,24c-8.8,0-16,7.2-16,16c0,8.8,7.2,16,16,16s16-7.2,16-16
      C216,31.2,208.8,24,200,24z M200,48c-4.4,0-8-3.6-8-8c0-4.4,3.6-8,8-8c4.4,0,8,3.6,8,8C208,44.4,204.4,48,200,48z M152,56
      c8.8,0,16-7.2,16-16c0-8.8-7.2-16-16-16s-16,7.2-16,16C136,48.8,143.2,56,152,56z M152,32c4.4,0,8,3.6,8,8c0,4.4-3.6,8-8,8
      c-4.4,0-8-3.6-8-8C144,35.6,147.6,32,152,32z M224,0H32C14.4,0,0,14.4,0,32v192c0,17.6,14.4,32,32,32h192c17.6,0,32-14.4,32-32V32
      C256,14.4,241.6,0,224,0z M240,224c0,8.8-7.2,16-16,16H32c-8.8,0-16-7.2-16-16V32c0-8.8,7.2-16,16-16h192c8.8,0,16,7.2,16,16V224z
       M56,56c8.8,0,16-7.2,16-16c0-8.8-7.2-16-16-16s-16,7.2-16,16C40,48.8,47.2,56,56,56z M56,32c4.4,0,8,3.6,8,8c0,4.4-3.6,8-8,8
      c-4.4,0-8-3.6-8-8C48,35.6,51.6,32,56,32z M208,108c0,2.2-1.8,4-4,4c0,0,0,0,0,0H52c0,0,0,0,0,0c-2.2,0-4-1.8-4-4c0-2.2,1.8-4,4-4
      l0,0h152l0,0C206.2,104,208,105.8,208,108z M208,140c0,2.2-1.8,4-4,4H52c-2.2,0-4-1.8-4-4s1.8-4,4-4h152
      C206.2,136,208,137.8,208,140z M208,172c0,2.2-1.8,4-4,4l0,0H52l0,0c-2.2,0-4-1.8-4-4c0-2.2,1.8-4,4-4c0,0,0,0,0,0h152c0,0,0,0,0,0
      C206.2,168,208,169.8,208,172z M208,204c0,2.2-1.8,4-4,4v0H52v0c-2.2,0-4-1.8-4-4c0-2.2,1.8-4,4-4c0,0,0,0,0,0h152c0,0,0,0,0,0
      C206.2,200,208,201.8,208,204z"/>
  </symbol>

  <symbol id="new-window" viewBox="0 0 256 256">
    <path d="M256,16v80c0,8.8-7.2,16-16,16s-16-7.2-16-16V54.6l-84.7,84.7c-3.1,3.1-7.2,4.7-11.3,4.7c-4.1,0-8.2-1.6-11.3-4.7
      c-6.2-6.2-6.2-16.4,0-22.6L201.4,32H160c-8.8,0-16-7.2-16-16s7.2-16,16-16h80C248.8,0,256,7.2,256,16z M208,256c8.8,0,16-7.2,16-16
      v-80c0-8.8-7.2-16-16-16s-16,7.2-16,16v64H32V64h64c8.8,0,16-7.2,16-16s-7.2-16-16-16H16C7.2,32,0,39.2,0,48v192c0,8.8,7.2,16,16,16
      H208L208,256z"/>
  </symbol>

  <symbol id="document" viewBox="0 0 192 256">
    <path d="M187.3,52.7l-48-48c-3-3-7.1-4.7-11.3-4.7H16C7.2,0,0,7.2,0,16v224c0,8.8,7.2,16,16,16h160c8.8,0,16-7.2,16-16V64
      C192,59.8,190.3,55.7,187.3,52.7z M128,16l48,48h-48V16z M176,240H16V16h104v48c0,4.4,3.6,8,8,8h48V240z"/>
  </symbol>

  <symbol id="envelope" viewBox="0 0 256 160">
    <path d="M224,16c8.8,0,16,7.2,16,16v96c0,8.8-7.2,16-16,16H32c-8.8,0-16-7.2-16-16V32c0-8.8,7.2-16,16-16H224 M224,0H32
      C14.4,0,0,14.4,0,32v96c0,17.6,14.4,32,32,32h192c17.6,0,32-14.4,32-32V32C256,14.4,241.6,0,224,0L224,0z M128,96
      c1.3,0,2.6-0.3,3.8-1l88-48c3.9-2.1,5.3-7,3.2-10.9c-2.1-3.9-7-5.3-10.9-3.2L128,78.9L43.8,33c-3.9-2.1-8.7-0.7-10.9,3.2
      c-2.1,3.9-0.7,8.7,3.2,10.9l88,48C125.4,95.7,126.7,96,128,96L128,96z"/>
  </symbol>

  <symbol id="location-pin" viewBox="0 0 192 256">
    <path d="M96,16c44.2,0,80,35.8,80,80c0,64-80,144-80,144S16,160,16,96C16,51.8,51.8,16,96,16 M96,0C43.1,0,0,43.1,0,96
      c0,29.9,14.5,65.4,43,105.3c20.5,28.7,40.9,49.2,41.7,50c3.1,3.1,7.2,4.7,11.3,4.7c4.1,0,8.2-1.6,11.3-4.7
      c0.9-0.9,21.2-21.3,41.7-50c28.5-39.9,43-75.4,43-105.3C192,43.1,148.9,0,96,0L96,0z M96,56c22.1,0,40,17.9,40,40s-17.9,40-40,40
      s-40-17.9-40-40S73.9,56,96,56 M96,48c-26.5,0-48,21.5-48,48s21.5,48,48,48s48-21.5,48-48S122.5,48,96,48L96,48z"/>
  </symbol>

  <symbol id="smartphone" viewBox="0 0 160 256">
    <path d="M128,0H32C14.4,0,0,14.4,0,32v192c0,17.6,14.4,32,32,32h96c17.6,0,32-14.4,32-32V32C160,14.4,145.6,0,128,0z M16,32
      c0-8.8,7.2-16,16-16h96c8.8,0,16,7.2,16,16v24H16V32z M16,64h128v120H16V64z M144,224c0,8.8-7.2,16-16,16H32c-8.8,0-16-7.2-16-16
      v-32h128V224z M80,232c8.8,0,16-7.2,16-16c0-8.8-7.2-16-16-16s-16,7.2-16,16C64,224.8,71.2,232,80,232z M80,208c4.4,0,8,3.6,8,8
      c0,4.4-3.6,8-8,8s-8-3.6-8-8C72,211.6,75.6,208,80,208z M100,36c0,2.2-1.8,4-4,4H64c-2.2,0-4-1.8-4-4s1.8-4,4-4h32
      C98.2,32,100,33.8,100,36z"/>
  </symbol>

  <symbol id="remove" viewBox="0 0 256 256">
    <path d="M128,16c29.9,0,58,11.7,79.2,32.8C228.3,70,240,98.1,240,128s-11.7,58-32.8,79.2C186,228.4,157.9,240,128,240
      s-58-11.6-79.2-32.8C27.7,186,16,157.9,16,128s11.7-58,32.8-79.2C70,27.7,98.1,16,128,16 M128,0C57.3,0,0,57.3,0,128
      s57.3,128,128,128s128-57.3,128-128S198.7,0,128,0L128,0z M150.6,128l36.7-36.7c6.2-6.2,6.2-16.4,0-22.6c-6.2-6.2-16.4-6.2-22.6,0
      L128,105.4L91.3,68.7c-6.2-6.2-16.4-6.2-22.6,0c-6.2,6.2-6.2,16.4,0,22.6l36.7,36.7l-36.7,36.7c-6.2,6.2-6.2,16.4,0,22.6
      c3.1,3.1,7.2,4.7,11.3,4.7s8.2-1.6,11.3-4.7l36.7-36.7l36.7,36.7c3.1,3.1,7.2,4.7,11.3,4.7s8.2-1.6,11.3-4.7
      c6.2-6.2,6.2-16.4,0-22.6L150.6,128z"/>
  </symbol>

  <symbol id="checkmark-naked" viewBox="0 0 128 112">
    <path d="M48,112c0.3,0,0.6,0,0.9,0c4.5-0.3,8.8-2.4,11.6-6l64-80c5.5-6.9,4.4-17-2.5-22.5C115.1-2,105-0.9,99.5,6L46.7,72L27.3,52.7
      c-6.2-6.2-16.4-6.2-22.6,0c-6.2,6.2-6.2,16.4,0,22.6l32,32C39.7,110.3,43.8,112,48,112L48,112z"/>
  </symbol>

  <symbol id="select-arrow" viewBox="0 0 256 160">
    <path d="M0,32c0-8.2,3.1-16.4,9.4-22.6c12.5-12.5,32.8-12.5,45.3,0L128,82.7l73.4-73.4c12.5-12.5,32.8-12.5,45.3,0
      c12.5,12.5,12.5,32.8,0,45.3l-96,96c-12.5,12.5-32.8,12.5-45.3,0l-96-96C3.1,48.4,0,40.2,0,32L0,32z"/>
  </symbol>

  <symbol id="star.filled" viewBox="0 0 128 128">
    <path d="M127.6,49.5c-0.9-2.9-3.4-5-6.4-5.4l-33.8-5.3L71.2,4.6C69.9,1.8,67.1,0,64,0c-3.1,0-5.9,1.8-7.2,4.6L40.6,38.8L6.8,44.1
      c-3,0.5-5.4,2.6-6.4,5.4C0.1,50.3,0,51.2,0,52c0,2.1,0.8,4.1,2.3,5.7l25,25l-7.2,35.8c-0.6,3.1,0.6,6.2,3.1,8c1.4,1,3.1,1.5,4.7,1.5
      c1.3,0,2.7-0.3,3.9-1L64,109.2L96.1,127c1.2,0.7,2.6,1,3.9,1c1.7,0,3.3-0.5,4.7-1.5c2.5-1.8,3.7-5,3.1-8l-7.2-35.8l25-25
      c1.5-1.5,2.3-3.6,2.3-5.7C128,51.2,127.9,50.3,127.6,49.5z"/>
  </symbol>

  <symbol id="user.filled" viewBox="0 0 128 128">
    <path d="M32,48V32C32,14.4,46.4,0,64,0c17.6,0,32,14.4,32,32v16c0,17.6-14.4,32-32,32C46.4,80,32,65.6,32,48z M123.6,104.8
      C122.2,104.2,89.6,88,64,88c-25.6,0-58.2,16.2-59.6,16.8C1.7,106.2,0,109,0,112v8c0,4.4,3.6,8,8,8h112c4.4,0,8-3.6,8-8v-8
      C128,109,126.3,106.2,123.6,104.8z"/>
  </symbol>

  <symbol id="heart.filled" viewBox="0 0 128 112">
    <path d="M118,10c-6.4-6.4-15-10-24-10S76.4,3.5,70,10c-2.4,2.4-4.4,5.1-6,8c-1.6-2.9-3.6-5.6-6-8c-6.4-6.4-15-10-24-10
      S16.4,3.5,10,10c-6.4,6.4-10,15-10,24c0,9.1,3.5,17.6,10,24l48.2,51.4c1.5,1.6,3.6,2.6,5.9,2.6s4.3-0.9,5.9-2.6L118,58
      c6.4-6.4,10-15,10-24C128,24.9,124.5,16.4,118,10z"/>
  </symbol>

  <symbol id="thumbs-up.filled" viewBox="0 0 128 128">
    <path d="M32,120H0V48h32V120z M120,52c-4.5-1-26.9-3.5-40-4c8-12,8-40,8-40c0-4-3.5-8-8-8c-4.6,0-6.4,0.9-7.9,1.9
      C68,16,63.2,28.1,60,32S40,48,40,48v64c6.1,4,44.5,16,64,16c7.2,0,14.6-4.2,16-8c2.4-6.5,8-40.5,8-60C128,56.9,124.5,53,120,52z"/>
  </symbol>

  <symbol id="right-arrow-w-line" viewBox="0 0 256 160">
    <path d="M251.3,68.7l-64-64c-6.2-6.2-16.4-6.2-22.6,0c-6.2,6.2-6.2,16.4,0,22.6L201.4,64H16C7.2,64,0,71.2,0,80s7.2,16,16,16h185.4
      l-36.7,36.7c-6.2,6.2-6.2,16.4,0,22.6c3.1,3.1,7.2,4.7,11.3,4.7c4.1,0,8.2-1.6,11.3-4.7l64-64C257.6,85.1,257.6,74.9,251.3,68.7z"/>
  </symbol>

  <symbol id="remove-item" viewBox="0 0 256 256">
    <path d="M128,16c29.9,0,58,11.6,79.2,32.8C228.3,70,240,98.1,240,128s-11.7,58-32.8,79.2C186,228.3,157.9,240,128,240
      s-58-11.7-79.2-32.8C27.7,186,16,157.9,16,128s11.7-58,32.8-79.2S98.1,16,128,16 M128,0C57.3,0,0,57.3,0,128s57.3,128,128,128
      c70.7,0,128-57.3,128-128S198.7,0,128,0L128,0z M192,144c8.8,0,16-7.2,16-16c0-8.8-7.2-16-16-16H64c-8.8,0-16,7.2-16,16
      c0,8.8,7.2,16,16,16H192L192,144z"/>
  </symbol>

  <symbol id="loader" viewBox="0 0 40 40">
    <path opacity="0.2" d="M20.201,5.169c-8.254,0-14.946,6.692-14.946,14.946c0,8.255,6.692,14.946,14.946,14.946
      s14.946-6.691,14.946-14.946C35.146,11.861,28.455,5.169,20.201,5.169z M20.201,31.749c-6.425,0-11.634-5.208-11.634-11.634
      c0-6.425,5.209-11.634,11.634-11.634c6.425,0,11.633,5.209,11.633,11.634C31.834,26.541,26.626,31.749,20.201,31.749z"/>
    <path d="M26.013,10.047l1.654-2.866c-2.198-1.272-4.743-2.012-7.466-2.012h0v3.312h0
      C22.32,8.481,24.301,9.057,26.013,10.047z">
      <animateTransform attributeType="xml"
        attributeName="transform"
        type="rotate"
        from="0 20 20"
        to="360 20 20"
        dur="0.5s"
        repeatCount="indefinite"/>
    </path>
  </symbol>

</svg>
