<?xml version="1.0" encoding="utf-8"?>
<!-- Generator: Adobe Illustrator 18.0.0, SVG Export Plug-In . SVG Version: 6.00 Build 0)  -->
<!DOCTYPE svg PUBLIC "-//W3C//DTD SVG 1.1//EN" "http://www.w3.org/Graphics/SVG/1.1/DTD/svg11.dtd">
<svg version="1.1" id="Layer_1" xmlns="http://www.w3.org/2000/svg" xmlns:xlink="http://www.w3.org/1999/xlink" x="0px" y="0px"
	 viewBox="0 0 274.4 274.4" enable-background="new 0 0 274.4 274.4" xml:space="preserve">
<path id="contact_x5F_cards" fill="#231F20" d="M240.1,17.1v25.7H34.3V17.1H240.1 M248.6,51.4v34.3H25.7V51.4H248.6 M257.2,94.3
	v162.9h-68.6v-25.7h17.1v-8.6h-42.9v8.6h17.1v25.7H94.3v-25.7h17.1v-8.6H68.6v8.6h17.1v25.7H17.1V94.3H257.2 M64.3,147.2
	c8.9,0,16-7.2,16-16.1c0-8.8-7.2-16-16-16c-8.8,0-16,7.2-16,16C48.3,140,55.5,147.2,64.3,147.2 M128.6,137.2h102.9v-8.6H128.6V137.2
	 M128.6,162.9h102.9v-8.6H128.6V162.9 M42.9,197.2h42.9v-21c0-11.9-8.7-21.6-21.4-21.6c-12.7,0-21.4,9.7-21.4,21.6V197.2
	 M128.6,188.6h102.9v-8.6H128.6V188.6 M240.1,0H34.3c-9.5,0-17.1,7.7-17.1,17.1v19.4c-5.1,3-8.6,8.5-8.6,14.9v28
	C3.4,82.4,0,88,0,94.3v162.9c0,9.5,7.7,17.1,17.1,17.1h240.1c9.5,0,17.1-7.7,17.1-17.1V94.3c0-6.3-3.4-11.9-8.6-14.9v-28
	c0-6.3-3.4-11.9-8.6-14.9V17.1C257.2,7.7,249.5,0,240.1,0L240.1,0z"/>
</svg>
