<?xml version="1.0" encoding="utf-8"?>
<!-- Generator: Adobe Illustrator 18.0.0, SVG Export Plug-In . SVG Version: 6.00 Build 0)  -->
<!DOCTYPE svg PUBLIC "-//W3C//DTD SVG 1.1//EN" "http://www.w3.org/Graphics/SVG/1.1/DTD/svg11.dtd">
<svg version="1.1" id="Layer_1" xmlns="http://www.w3.org/2000/svg" xmlns:xlink="http://www.w3.org/1999/xlink" x="0px" y="0px"
	 viewBox="0 0 192 256" enable-background="new 0 0 192 256" xml:space="preserve">
<path d="M187.3,52.7l-48-48c-3-3-7.1-4.7-11.3-4.7H16C7.2,0,0,7.2,0,16v224c0,8.8,7.2,16,16,16h160c8.8,0,16-7.2,16-16V64
	C192,59.8,190.3,55.7,187.3,52.7z M128,16l48,48h-48V16z M176,240H16V16h104v48c0,4.4,3.6,8,8,8h48V240z M58.3,157.7l32,32
	c3.1,3.1,8.2,3.1,11.3,0l32-32c3.1-3.1,3.1-8.2,0-11.3c-3.1-3.1-8.2-3.1-11.3,0L104,164.7V120c0-4.4-3.6-8-8-8c-4.4,0-8,3.6-8,8
	v44.7l-18.3-18.3c-1.6-1.6-3.6-2.3-5.7-2.3c-2,0-4.1,0.8-5.7,2.3C55.2,149.5,55.2,154.5,58.3,157.7z"/>
</svg>
