<?xml version="1.0" encoding="utf-8"?>
<!-- Generator: Adobe Illustrator 18.0.0, SVG Export Plug-In . SVG Version: 6.00 Build 0)  -->
<!DOCTYPE svg PUBLIC "-//W3C//DTD SVG 1.1//EN" "http://www.w3.org/Graphics/SVG/1.1/DTD/svg11.dtd">
<svg version="1.1" id="Layer_1" xmlns="http://www.w3.org/2000/svg" xmlns:xlink="http://www.w3.org/1999/xlink" x="0px" y="0px"
	 viewBox="0 0 128 112" enable-background="new 0 0 128 112" xml:space="preserve">
<path d="M118,10c-6.4-6.4-15-10-24-10S76.4,3.5,70,10c-2.4,2.4-4.4,5.1-6,8c-1.6-2.9-3.6-5.6-6-8c-6.4-6.4-15-10-24-10
	S16.4,3.5,10,10c-6.4,6.4-10,15-10,24c0,9.1,3.5,17.6,10,24l48.2,51.4c1.5,1.6,3.6,2.6,5.9,2.6s4.3-0.9,5.9-2.6L118,58
	c6.4-6.4,10-15,10-24C128,24.9,124.5,16.4,118,10z"/>
</svg>
