<?xml version="1.0" encoding="utf-8"?>
<!-- Generator: Adobe Illustrator 18.0.0, SVG Export Plug-In . SVG Version: 6.00 Build 0)  -->
<!DOCTYPE svg PUBLIC "-//W3C//DTD SVG 1.1//EN" "http://www.w3.org/Graphics/SVG/1.1/DTD/svg11.dtd">
<svg version="1.1" id="Layer_1" xmlns="http://www.w3.org/2000/svg" xmlns:xlink="http://www.w3.org/1999/xlink" x="0px" y="0px"
	 viewBox="0 0 192 256" enable-background="new 0 0 192 256" xml:space="preserve">
<path d="M96,16c44.2,0,80,35.8,80,80c0,64-80,144-80,144S16,160,16,96C16,51.8,51.8,16,96,16 M96,0C43.1,0,0,43.1,0,96
	c0,29.9,14.5,65.4,43,105.3c20.5,28.7,40.9,49.2,41.7,50c3.1,3.1,7.2,4.7,11.3,4.7c4.1,0,8.2-1.6,11.3-4.7
	c0.9-0.9,21.2-21.3,41.7-50c28.5-39.9,43-75.4,43-105.3C192,43.1,148.9,0,96,0L96,0z M96,56c22.1,0,40,17.9,40,40s-17.9,40-40,40
	s-40-17.9-40-40S73.9,56,96,56 M96,48c-26.5,0-48,21.5-48,48s21.5,48,48,48s48-21.5,48-48S122.5,48,96,48L96,48z"/>
</svg>
