<?xml version="1.0" encoding="utf-8"?>
<!-- Generator: Adobe Illustrator 18.0.0, SVG Export Plug-In . SVG Version: 6.00 Build 0)  -->
<!DOCTYPE svg PUBLIC "-//W3C//DTD SVG 1.1//EN" "http://www.w3.org/Graphics/SVG/1.1/DTD/svg11.dtd">
<svg version="1.1" id="Layer_1" xmlns="http://www.w3.org/2000/svg" xmlns:xlink="http://www.w3.org/1999/xlink" x="0px" y="0px"
	 viewBox="0 0 256 256" enable-background="new 0 0 256 256" xml:space="preserve">
<path d="M256,16v80c0,8.8-7.2,16-16,16s-16-7.2-16-16V54.6l-84.7,84.7c-3.1,3.1-7.2,4.7-11.3,4.7c-4.1,0-8.2-1.6-11.3-4.7
	c-6.2-6.2-6.2-16.4,0-22.6L201.4,32H160c-8.8,0-16-7.2-16-16s7.2-16,16-16h80C248.8,0,256,7.2,256,16z M208,256c8.8,0,16-7.2,16-16
	v-80c0-8.8-7.2-16-16-16s-16,7.2-16,16v64H32V64h64c8.8,0,16-7.2,16-16s-7.2-16-16-16H16C7.2,32,0,39.2,0,48v192c0,8.8,7.2,16,16,16
	H208L208,256z"/>
</svg>
