<?xml version="1.0" encoding="utf-8"?>
<!-- Generator: Adobe Illustrator 18.0.0, SVG Export Plug-In . SVG Version: 6.00 Build 0)  -->
<!DOCTYPE svg PUBLIC "-//W3C//DTD SVG 1.1//EN" "http://www.w3.org/Graphics/SVG/1.1/DTD/svg11.dtd">
<svg version="1.1" id="Layer_1" xmlns="http://www.w3.org/2000/svg" xmlns:xlink="http://www.w3.org/1999/xlink" x="0px" y="0px"
	 viewBox="0 0 256 256" enable-background="new 0 0 256 256" xml:space="preserve">
<path d="M128,16c29.9,0,58,11.7,79.2,32.8C228.3,70,240,98.1,240,128s-11.7,58-32.8,79.2C186,228.4,157.9,240,128,240
	s-58-11.6-79.2-32.8C27.7,186,16,157.9,16,128s11.7-58,32.8-79.2C70,27.7,98.1,16,128,16 M128,0C57.3,0,0,57.3,0,128
	s57.3,128,128,128s128-57.3,128-128S198.7,0,128,0L128,0z M150.6,128l36.7-36.7c6.2-6.2,6.2-16.4,0-22.6c-6.2-6.2-16.4-6.2-22.6,0
	L128,105.4L91.3,68.7c-6.2-6.2-16.4-6.2-22.6,0c-6.2,6.2-6.2,16.4,0,22.6l36.7,36.7l-36.7,36.7c-6.2,6.2-6.2,16.4,0,22.6
	c3.1,3.1,7.2,4.7,11.3,4.7s8.2-1.6,11.3-4.7l36.7-36.7l36.7,36.7c3.1,3.1,7.2,4.7,11.3,4.7s8.2-1.6,11.3-4.7
	c6.2-6.2,6.2-16.4,0-22.6L150.6,128z"/>
</svg>
