<?xml version="1.0" encoding="utf-8"?>
<!-- Generator: Adobe Illustrator 18.0.0, SVG Export Plug-In . SVG Version: 6.00 Build 0)  -->
<!DOCTYPE svg PUBLIC "-//W3C//DTD SVG 1.1//EN" "http://www.w3.org/Graphics/SVG/1.1/DTD/svg11.dtd">
<svg version="1.1" id="Layer_1" xmlns="http://www.w3.org/2000/svg" xmlns:xlink="http://www.w3.org/1999/xlink" x="0px" y="0px"
	 viewBox="0 0 256 256" enable-background="new 0 0 256 256" xml:space="preserve">
<path d="M128,16c29.9,0,58,11.6,79.2,32.8C228.3,70,240,98.1,240,128s-11.7,58-32.8,79.2C186,228.3,157.9,240,128,240
	s-58-11.7-79.2-32.8C27.7,186,16,157.9,16,128s11.7-58,32.8-79.2S98.1,16,128,16 M128,0C57.3,0,0,57.3,0,128s57.3,128,128,128
	c70.7,0,128-57.3,128-128S198.7,0,128,0L128,0z M192,144c8.8,0,16-7.2,16-16c0-8.8-7.2-16-16-16H64c-8.8,0-16,7.2-16,16
	c0,8.8,7.2,16,16,16H192L192,144z"/>
</svg>
