<?xml version="1.0" encoding="utf-8"?>
<!-- Generator: Adobe Illustrator 18.0.0, SVG Export Plug-In . SVG Version: 6.00 Build 0)  -->
<!DOCTYPE svg PUBLIC "-//W3C//DTD SVG 1.1//EN" "http://www.w3.org/Graphics/SVG/1.1/DTD/svg11.dtd">
<svg version="1.1" id="Layer_1" xmlns="http://www.w3.org/2000/svg" xmlns:xlink="http://www.w3.org/1999/xlink" x="0px" y="0px"
	 viewBox="0 0 256 256" enable-background="new 0 0 256 256" xml:space="preserve">
<path d="M128,88c22.1,0,40,17.9,40,40s-17.9,40-40,40s-40-17.9-40-40S105.9,88,128,88 M128,80c-26.5,0-48,21.5-48,48s21.5,48,48,48
	c26.5,0,48-21.5,48-48S154.5,80,128,80L128,80z M128,16c4.1,0,8.2,0.2,12.2,0.7l8.5,34.1c6.9,1.8,13.3,4.6,19.3,8l30.1-18.1
	c6.3,5.1,12.1,10.9,17.2,17.2L197.3,88c3.5,6,6.2,12.5,8,19.3l34.1,8.5c0.4,4,0.7,8.1,0.7,12.2s-0.2,8.2-0.7,12.2l-34.1,8.5
	c-1.8,6.9-4.6,13.3-8,19.3l18.1,30.1c-5.1,6.3-10.9,12.1-17.2,17.2L168,197.3c-6,3.5-12.5,6.2-19.3,8l-8.5,34.1
	c-4,0.4-8.1,0.7-12.2,0.7s-8.2-0.2-12.2-0.7l-8.5-34.1c-6.9-1.8-13.3-4.6-19.3-8l-30.1,18.1c-6.3-5.1-12.1-10.9-17.2-17.2L58.7,168
	c-3.5-6-6.2-12.5-8-19.3l-34.1-8.5c-0.4-4-0.7-8.1-0.7-12.2s0.2-8.2,0.7-12.2l34.1-8.5c1.8-6.9,4.6-13.3,8-19.3L40.7,57.9
	c5.1-6.3,10.9-12.1,17.2-17.2L88,58.7c6-3.5,12.5-6.2,19.3-8l8.5-34.1C119.8,16.2,123.9,16,128,16 M128,0c-4.6,0-9.3,0.3-13.9,0.8
	c-6.7,0.7-12.2,5.5-13.8,12l-6.4,25.5c-1.8,0.7-3.6,1.4-5.3,2.2L66.1,27c-2.5-1.5-5.4-2.3-8.2-2.3c-3.6,0-7.1,1.2-10,3.5
	C40.6,34,34,40.6,28.2,47.9C24,53.1,23.5,60.4,27,66.1l13.5,22.5c-0.8,1.8-1.5,3.5-2.2,5.3l-25.5,6.4c-6.5,1.6-11.3,7.1-12,13.8
	C0.3,118.7,0,123.4,0,128s0.3,9.3,0.8,13.9c0.7,6.7,5.5,12.2,12,13.8l25.5,6.4c0.7,1.8,1.4,3.6,2.2,5.3L27,189.9
	c-3.4,5.7-2.9,13,1.2,18.3c5.8,7.2,12.4,13.8,19.7,19.7c2.9,2.3,6.5,3.5,10,3.5c2.8,0,5.7-0.8,8.2-2.3l22.5-13.5
	c1.8,0.8,3.5,1.5,5.3,2.2l6.4,25.5c1.6,6.5,7.1,11.3,13.8,12c4.6,0.5,9.3,0.8,13.9,0.8c4.6,0,9.3-0.3,13.9-0.8
	c6.7-0.7,12.2-5.5,13.8-12l6.4-25.5c1.8-0.7,3.6-1.4,5.3-2.2l22.5,13.5c2.5,1.5,5.4,2.3,8.2,2.3c3.6,0,7.1-1.2,10-3.5
	c7.2-5.8,13.8-12.4,19.7-19.6c4.2-5.2,4.7-12.5,1.2-18.3l-13.5-22.5c0.8-1.8,1.5-3.5,2.2-5.3l25.5-6.4c6.5-1.6,11.3-7.1,12-13.8
	c0.5-4.6,0.8-9.3,0.8-13.9c0-4.6-0.3-9.3-0.8-13.9c-0.7-6.7-5.5-12.2-12-13.8l-25.5-6.4c-0.7-1.8-1.4-3.6-2.2-5.3L229,66.1
	c3.4-5.7,2.9-13-1.2-18.3c-5.8-7.2-12.4-13.8-19.6-19.7c-2.9-2.3-6.5-3.5-10-3.5c-2.8,0-5.7,0.8-8.2,2.3l-22.5,13.5
	c-1.8-0.8-3.5-1.5-5.3-2.2l-6.4-25.5c-1.6-6.5-7.1-11.3-13.8-12C137.3,0.3,132.6,0,128,0L128,0z"/>
</svg>
