<?xml version="1.0" encoding="utf-8"?>
<!-- Generator: Adobe Illustrator 18.0.0, SVG Export Plug-In . SVG Version: 6.00 Build 0)  -->
<!DOCTYPE svg PUBLIC "-//W3C//DTD SVG 1.1//EN" "http://www.w3.org/Graphics/SVG/1.1/DTD/svg11.dtd">
<svg version="1.1" id="Layer_1" xmlns="http://www.w3.org/2000/svg" xmlns:xlink="http://www.w3.org/1999/xlink" x="0px" y="0px"
	 viewBox="0 0 160 256" enable-background="new 0 0 160 256" xml:space="preserve">
<path d="M128,0H32C14.4,0,0,14.4,0,32v192c0,17.6,14.4,32,32,32h96c17.6,0,32-14.4,32-32V32C160,14.4,145.6,0,128,0z M16,32
	c0-8.8,7.2-16,16-16h96c8.8,0,16,7.2,16,16v24H16V32z M16,64h128v120H16V64z M144,224c0,8.8-7.2,16-16,16H32c-8.8,0-16-7.2-16-16
	v-32h128V224z M80,232c8.8,0,16-7.2,16-16c0-8.8-7.2-16-16-16s-16,7.2-16,16C64,224.8,71.2,232,80,232z M80,208c4.4,0,8,3.6,8,8
	c0,4.4-3.6,8-8,8s-8-3.6-8-8C72,211.6,75.6,208,80,208z M100,36c0,2.2-1.8,4-4,4H64c-2.2,0-4-1.8-4-4s1.8-4,4-4h32
	C98.2,32,100,33.8,100,36z"/>
</svg>
