<?xml version="1.0" encoding="utf-8"?>
<!-- Generator: Adobe Illustrator 18.0.0, SVG Export Plug-In . SVG Version: 6.00 Build 0)  -->
<!DOCTYPE svg PUBLIC "-//W3C//DTD SVG 1.1//EN" "http://www.w3.org/Graphics/SVG/1.1/DTD/svg11.dtd">
<svg version="1.1" id="Layer_1" xmlns="http://www.w3.org/2000/svg" xmlns:xlink="http://www.w3.org/1999/xlink" x="0px" y="0px"
	 viewBox="0 0 256 256" enable-background="new 0 0 256 256" xml:space="preserve">
<path d="M104,56c8.8,0,16-7.2,16-16c0-8.8-7.2-16-16-16s-16,7.2-16,16C88,48.8,95.2,56,104,56z M104,32c4.4,0,8,3.6,8,8
	c0,4.4-3.6,8-8,8c-4.4,0-8-3.6-8-8C96,35.6,99.6,32,104,32z M200,24c-8.8,0-16,7.2-16,16c0,8.8,7.2,16,16,16s16-7.2,16-16
	C216,31.2,208.8,24,200,24z M200,48c-4.4,0-8-3.6-8-8c0-4.4,3.6-8,8-8c4.4,0,8,3.6,8,8C208,44.4,204.4,48,200,48z M152,56
	c8.8,0,16-7.2,16-16c0-8.8-7.2-16-16-16s-16,7.2-16,16C136,48.8,143.2,56,152,56z M152,32c4.4,0,8,3.6,8,8c0,4.4-3.6,8-8,8
	c-4.4,0-8-3.6-8-8C144,35.6,147.6,32,152,32z M224,0H32C14.4,0,0,14.4,0,32v192c0,17.6,14.4,32,32,32h192c17.6,0,32-14.4,32-32V32
	C256,14.4,241.6,0,224,0z M240,224c0,8.8-7.2,16-16,16H32c-8.8,0-16-7.2-16-16V32c0-8.8,7.2-16,16-16h192c8.8,0,16,7.2,16,16V224z
	 M56,56c8.8,0,16-7.2,16-16c0-8.8-7.2-16-16-16s-16,7.2-16,16C40,48.8,47.2,56,56,56z M56,32c4.4,0,8,3.6,8,8c0,4.4-3.6,8-8,8
	c-4.4,0-8-3.6-8-8C48,35.6,51.6,32,56,32z M208,108c0,2.2-1.8,4-4,4c0,0,0,0,0,0H52c0,0,0,0,0,0c-2.2,0-4-1.8-4-4c0-2.2,1.8-4,4-4
	l0,0h152l0,0C206.2,104,208,105.8,208,108z M208,140c0,2.2-1.8,4-4,4H52c-2.2,0-4-1.8-4-4s1.8-4,4-4h152
	C206.2,136,208,137.8,208,140z M208,172c0,2.2-1.8,4-4,4l0,0H52l0,0c-2.2,0-4-1.8-4-4c0-2.2,1.8-4,4-4c0,0,0,0,0,0h152c0,0,0,0,0,0
	C206.2,168,208,169.8,208,172z M208,204c0,2.2-1.8,4-4,4v0H52v0c-2.2,0-4-1.8-4-4c0-2.2,1.8-4,4-4c0,0,0,0,0,0h152c0,0,0,0,0,0
	C206.2,200,208,201.8,208,204z"/>
</svg>
