<?xml version="1.0" encoding="utf-8"?>
<!-- Generator: Adobe Illustrator 18.0.0, SVG Export Plug-In . SVG Version: 6.00 Build 0)  -->
<!DOCTYPE svg PUBLIC "-//W3C//DTD SVG 1.1//EN" "http://www.w3.org/Graphics/SVG/1.1/DTD/svg11.dtd">
<svg version="1.1" id="Layer_1" xmlns="http://www.w3.org/2000/svg" xmlns:xlink="http://www.w3.org/1999/xlink" x="0px" y="0px"
	 viewBox="0 0 128 128" enable-background="new 0 0 128 128" xml:space="preserve">
<path d="M127.6,49.5c-0.9-2.9-3.4-5-6.4-5.4l-33.8-5.3L71.2,4.6C69.9,1.8,67.1,0,64,0c-3.1,0-5.9,1.8-7.2,4.6L40.6,38.8L6.8,44.1
	c-3,0.5-5.4,2.6-6.4,5.4C0.1,50.3,0,51.2,0,52c0,2.1,0.8,4.1,2.3,5.7l25,25l-7.2,35.8c-0.6,3.1,0.6,6.2,3.1,8c1.4,1,3.1,1.5,4.7,1.5
	c1.3,0,2.7-0.3,3.9-1L64,109.2L96.1,127c1.2,0.7,2.6,1,3.9,1c1.7,0,3.3-0.5,4.7-1.5c2.5-1.8,3.7-5,3.1-8l-7.2-35.8l25-25
	c1.5-1.5,2.3-3.6,2.3-5.7C128,51.2,127.9,50.3,127.6,49.5z"/>
</svg>
