<?xml version="1.0" encoding="utf-8"?>
<!-- Generator: Adobe Illustrator 18.0.0, SVG Export Plug-In . SVG Version: 6.00 Build 0)  -->
<!DOCTYPE svg PUBLIC "-//W3C//DTD SVG 1.1//EN" "http://www.w3.org/Graphics/SVG/1.1/DTD/svg11.dtd">
<svg version="1.1" id="Layer_1" xmlns="http://www.w3.org/2000/svg" xmlns:xlink="http://www.w3.org/1999/xlink" x="0px" y="0px"
	 viewBox="0 0 128 128" enable-background="new 0 0 128 128" xml:space="preserve">
<path d="M32,120H0V48h32V120z M120,52c-4.5-1-26.9-3.5-40-4c8-12,8-40,8-40c0-4-3.5-8-8-8c-4.6,0-6.4,0.9-7.9,1.9
	C68,16,63.2,28.1,60,32S40,48,40,48v64c6.1,4,44.5,16,64,16c7.2,0,14.6-4.2,16-8c2.4-6.5,8-40.5,8-60C128,56.9,124.5,53,120,52z"/>
</svg>
