<?xml version="1.0" encoding="utf-8"?>
<!-- Generator: Adobe Illustrator 18.0.0, SVG Export Plug-In . SVG Version: 6.00 Build 0)  -->
<!DOCTYPE svg PUBLIC "-//W3C//DTD SVG 1.1//EN" "http://www.w3.org/Graphics/SVG/1.1/DTD/svg11.dtd">
<svg version="1.1" id="Layer_1" xmlns="http://www.w3.org/2000/svg" xmlns:xlink="http://www.w3.org/1999/xlink" x="0px" y="0px"
	 viewBox="0 0 128 128" enable-background="new 0 0 128 128" xml:space="preserve">
<path d="M32,48V32C32,14.4,46.4,0,64,0c17.6,0,32,14.4,32,32v16c0,17.6-14.4,32-32,32C46.4,80,32,65.6,32,48z M123.6,104.8
	C122.2,104.2,89.6,88,64,88c-25.6,0-58.2,16.2-59.6,16.8C1.7,106.2,0,109,0,112v8c0,4.4,3.6,8,8,8h112c4.4,0,8-3.6,8-8v-8
	C128,109,126.3,106.2,123.6,104.8z"/>
</svg>
